<svg xmlns="http://www.w3.org/2000/svg" viewBox="0 0 128 128" fill="none">
  <defs>
    <linearGradient id="pixiGradient" x1="20" y1="16" x2="108" y2="112" gradientUnits="userSpaceOnUse">
      <stop offset="0" stop-color="#02B9FF"/>
      <stop offset=".48" stop-color="#315CFF"/>
      <stop offset="1" stop-color="#A42DFF"/>
    </linearGradient>
    <linearGradient id="pixiGlow" x1="38" y1="22" x2="92" y2="104" gradientUnits="userSpaceOnUse">
      <stop offset="0" stop-color="#6FE2FF"/>
      <stop offset="1" stop-color="#6B32FF"/>
    </linearGradient>
    <filter id="pixiShadow" x="-30%" y="-30%" width="170%" height="180%">
      <feDropShadow dx="0" dy="12" stdDeviation="10" flood-color="#4F46E5" flood-opacity=".2"/>
    </filter>
  </defs>
  <g filter="url(#pixiShadow)">
    <path d="M38 23h34c22 0 37 13 37 33S94 90 72 90H57v20H38V23Z" fill="url(#pixiGradient)"/>
    <path d="M57 41h14c11 0 18 5 18 15s-7 16-18 16H57V41Z" fill="#fff" fill-opacity=".92"/>
    <path d="M38 78h20v32H38V78Z" fill="url(#pixiGlow)"/>
    <rect x="14" y="38" width="10" height="10" rx="2" fill="#7A39FF"/>
    <rect x="5" y="55" width="13" height="13" rx="2.5" fill="#4D67FF"/>
    <rect x="18" y="72" width="8" height="8" rx="2" fill="#0AAEFF"/>
    <rect x="27" y="51" width="7" height="7" rx="1.5" fill="#9B32FF"/>
  </g>
</svg>
